<svg width="24" height="24" viewBox="0 0 24 24" fill="none" xmlns="http://www.w3.org/2000/svg">
  <rect x="2" y="2" width="20" height="20" rx="5" fill="#1664FF"/>
  <path d="M6.5 7.5h3.4c2.3 0 3.7 1.2 3.7 3.1 0 1.9-1.4 3.1-3.7 3.1H8.7v2.8H6.5v-9Zm2.2 1.9v2.4h1.05c.95 0 1.5-.45 1.5-1.2 0-.75-.55-1.2-1.5-1.2H8.7Z" fill="#FFFFFF"/>
  <path d="M14.5 16.5c1.6 0 2.8-.7 2.8-2.2 0-1.2-.75-1.7-2.4-2.1-.85-.2-1.1-.4-1.1-.75 0-.3.25-.5.7-.5.55 0 .95.25 1.15.75l1.5-.7c-.4-.95-1.25-1.45-2.6-1.45-1.5 0-2.5.8-2.5 2.05 0 1.15.7 1.7 2.35 2.1.9.22 1.15.4 1.15.78 0 .32-.3.52-.85.52-.65 0-1.1-.3-1.3-.85l-1.5.7c.4 1.05 1.3 1.65 2.95 1.65Z" fill="#FFFFFF"/>
</svg>
