<svg width="79" height="79" viewBox="0 0 79 79" fill="none" xmlns="http://www.w3.org/2000/svg">
<path d="M70.1015 30.9096C71.8286 37.3554 71.4974 44.1799 69.1542 50.4282C66.811 56.6765 62.573 62.0359 57.0333 65.7565C51.4936 69.4771 44.9293 71.3728 38.2589 71.1782C31.5886 70.9837 25.1459 68.7087 19.8324 64.6715C14.519 60.6344 10.6006 55.0371 8.62552 48.6629C6.65046 42.2886 6.71756 35.4564 8.81745 29.1222C10.9173 22.788 14.9449 17.2688 20.3367 13.3368C25.7284 9.4048 32.2145 7.25677 38.8874 7.19329L38.9672 15.5789C34.043 15.6257 29.2567 17.2108 25.2779 20.1124C21.2991 23.014 18.327 27.0868 16.7774 31.7611C15.2278 36.4353 15.1783 41.4771 16.6358 46.1809C18.0932 50.8847 20.9848 55.0151 24.9058 57.9943C28.8268 60.9735 33.5811 62.6523 38.5034 62.7958C43.4257 62.9394 48.2698 61.5405 52.3578 58.7949C56.4457 56.0494 59.5731 52.0944 61.3022 47.4836C63.0314 42.8728 63.2758 37.8367 62.0012 33.0801L70.1015 30.9096Z" fill="#5BE06A"/>
<circle cx="39.15" cy="11.35" r="4.15" fill="#5BE06A"/>
<circle cx="66.15" cy="32.15" r="4.15" fill="#5BE06A"/>
<circle cx="30.5" cy="33.5" r="8.5" fill="#D9D9D9"/>
<circle cx="50.5" cy="33.5" r="8.5" fill="#D9D9D9"/>
<circle cx="33.5" cy="31.5" r="2.5" fill="black"/>
<circle cx="53.5" cy="31.5" r="2.5" fill="black"/>
</svg>
