<svg width="955" height="955" viewBox="0 0 955 955" fill="none" xmlns="http://www.w3.org/2000/svg">
<path fill-rule="evenodd" clip-rule="evenodd" d="M477 0C515.66 0 547 31.3401 547 70C547 108.66 515.66 140 477 140C475.379 140 473.772 139.943 472.179 139.835L472.187 140.325C401.885 141.433 333.687 164.488 277.134 206.266C220.58 248.043 178.499 306.452 156.778 373.324C135.057 440.196 134.782 512.186 155.991 579.222C177.2 646.258 218.834 704.987 275.066 747.195C331.299 789.404 399.319 812.979 469.611 814.624C539.903 816.269 608.951 795.901 667.096 756.369C725.242 716.837 769.576 660.12 793.898 594.149C817.751 529.45 821.184 459.026 803.792 392.366C801.334 385.196 800 377.504 800 369.5C800 330.564 831.564 299 870.5 299C906.348 299 935.945 325.756 940.415 360.388C964.037 453.759 958.888 552.173 925.521 642.676C891.081 736.09 828.304 816.404 745.969 872.381C663.635 928.358 565.862 957.198 466.329 954.869C366.795 952.54 270.479 919.157 190.853 859.39C111.228 799.623 52.2754 716.461 22.2429 621.538C-7.78959 526.615 -7.40082 424.678 23.3562 329.987C54.1133 235.296 113.7 152.587 193.78 93.4307C273.86 34.2739 370.429 1.62808 469.977 0.0595703L469.981 0.347656C472.29 0.117842 474.631 7.07509e-06 477 0Z" fill="#5BE06A"/>
<circle cx="340" cy="380" r="125" fill="#D9D9D9"/>
<circle cx="626" cy="380" r="125" fill="#D9D9D9"/>
<circle cx="392" cy="343" r="37" fill="black"/>
<circle cx="674" cy="343" r="37" fill="black"/>
</svg>
